<?xml version="1.0" ?><!DOCTYPE svg  PUBLIC '-//W3C//DTD SVG 1.1//EN'  'http://www.w3.org/Graphics/SVG/1.1/DTD/svg11.dtd'><svg enable-background="new 0 0 100 100" height="100px" id="Layer_1" version="1.1" viewBox="0 0 100 100" width="100px" xml:space="preserve" xmlns="http://www.w3.org/2000/svg" xmlns:xlink="http://www.w3.org/1999/xlink"><g><circle cx="50" cy="50" fill="#00D95A" r="45"/><path d="M64.285,64.273c-0.65,0.978-1.792,1.304-2.77,0.652c-7.656-4.725-17.269-5.703-28.674-3.097   c-1.141,0.326-2.119-0.489-2.444-1.466c-0.325-1.14,0.488-2.118,1.466-2.443C44.247,55.15,55,56.29,63.471,61.503   C64.612,61.992,64.774,63.296,64.285,64.273z M68.196,55.312c-0.815,1.14-2.281,1.63-3.422,0.814   c-8.798-5.376-22.158-7.005-32.422-3.747c-1.303,0.326-2.77-0.326-3.096-1.629c-0.325-1.303,0.326-2.77,1.629-3.095   c11.894-3.584,26.559-1.792,36.659,4.399C68.522,52.542,69.01,54.172,68.196,55.312z M72.759,45.374   c-0.814,1.141-2.771,1.629-4.236,0.815c-10.428-6.192-27.86-6.844-37.8-3.748c-1.629,0.489-3.258-0.488-3.747-1.955   c-0.488-1.629,0.489-3.259,1.956-3.748c11.567-3.421,30.631-2.77,42.686,4.399C73.084,41.953,73.574,43.907,72.759,45.374z" fill="#FFFFFF"/></g></svg>